<?xml version="1.0" encoding="UTF-8"?>
<svg xmlns="http://www.w3.org/2000/svg" width="22" height="22" viewBox="0 0 22 22" fill="none">
  <path fill-rule="evenodd" clip-rule="evenodd" d="M22 2.2C22 0.984974 21.015 0 19.8 0H2.2C0.984974 0 0 0.984974 0 2.2V19.8C0 21.015 0.984974 22 2.2 22H19.8C21.015 22 22 21.015 22 19.8V2.2ZM4.67578 8.1001H7.63095V17.6001H4.67578V8.1001ZM15.1553 7.86377C13.7934 7.86377 12.8568 8.5707 12.4264 9.27995L12.3594 9.39806H12.3193V8.09997H9.48438V17.5999H12.4375L12.4385 12.7674L12.447 12.5045C12.5031 11.4176 12.8387 10.4609 14.2116 10.4609C15.3484 10.4609 15.6438 11.2581 15.7205 12.1216L15.737 12.3695L15.7465 12.7397L15.7473 17.5999H18.7005V12.3896L18.6963 12.0196C18.6949 11.9587 18.6931 11.8982 18.6909 11.838L18.6724 11.4825L18.6427 11.1378L18.6006 10.8049C18.3402 9.06239 17.4907 7.86377 15.1553 7.86377ZM4.40039 5.02025C4.40039 4.07045 5.17174 3.2998 6.1234 3.2998C7.07306 3.2998 7.84541 4.07145 7.84541 5.02025C7.84541 5.97005 7.07306 6.74169 6.1234 6.74169C5.17074 6.74169 4.40039 5.97005 4.40039 5.02025Z" fill="#0D0D0D"></path>
</svg>
