<?xml version="1.0" encoding="UTF-8"?>
<svg xmlns="http://www.w3.org/2000/svg" id="Layer_2" viewBox="0 0 271.59 59.33">
  <g id="_레이어_1">
    <rect width="59.33" height="59.33" rx="14.17" ry="14.17" style="fill:#f68e1e; stroke-width:0px;"></rect>
    <path d="m76.28,6h3.8l6.36,11.31c.19.35.4.77.63,1.28s.42,1.07.56,1.67V6h3.1v18.65h-3.8l-6.39-11.33c-.24-.41-.46-.86-.67-1.35s-.37-.99-.49-1.53v14.2h-3.1V6Z" style="fill:#303030; stroke-width:0px;"></path>
    <path d="m106.86,6v2.74h-8.72v5.02h8.18v2.69h-8.18v5.46h8.9v2.74h-12.19V6h12Z" style="fill:#303030; stroke-width:0px;"></path>
    <path d="m109.11,6h3.44l3.42,13.84,3.78-13.84h3.18l3.75,13.82,3.55-13.82h3.18l-5.15,18.65h-3.16l-3.78-14.36-3.93,14.36h-3.21l-5.07-18.65Z" style="fill:#303030; stroke-width:0px;"></path>
    <path d="m142.49,6h7.04c1.12,0,2.08.13,2.88.4.8.27,1.46.64,1.98,1.11.52.47.9,1.04,1.15,1.69.25.66.38,1.36.38,2.12v.54c0,.76-.13,1.48-.39,2.16-.26.68-.66,1.28-1.19,1.79-.54.51-1.2.91-1.99,1.22-.79.3-1.73.45-2.82.45h-3.73v7.17h-3.31V6Zm3.31,2.77v5.92h3.29c1.09,0,1.94-.21,2.56-.62.62-.41.93-1.16.93-2.25v-.47c0-.52-.08-.94-.23-1.27-.16-.33-.38-.59-.66-.79-.28-.2-.62-.34-1.02-.41-.4-.08-.83-.12-1.29-.12h-3.57Z" style="fill:#303030; stroke-width:0px;"></path>
    <path d="m172.76,24.66h-3.6l-1.81-5.12h-6.29l-1.84,5.12h-3.39l6.93-18.65h2.98l7.01,18.65Zm-10.74-7.89h4.37l-1.27-3.8c-.22-.62-.4-1.14-.53-1.57-.13-.42-.26-.86-.4-1.31-.07.26-.13.49-.19.7-.06.21-.13.42-.19.63-.07.22-.14.44-.22.69-.08.24-.18.53-.3.85l-1.27,3.8Z" style="fill:#303030; stroke-width:0px;"></path>
    <path d="m182.36,17.18h-3.8v7.48h-3.31V6h7.06c.97,0,1.82.13,2.57.39.75.26,1.38.61,1.89,1.06.51.45.9.99,1.16,1.62.27.63.4,1.32.4,2.06v.96c0,.98-.24,1.87-.72,2.65-.48.79-1.21,1.39-2.17,1.82.62,1.36,1.23,2.71,1.82,4.05.6,1.34,1.2,2.69,1.82,4.05h-3.6l-3.13-7.48Zm-3.8-8.41v5.64h3.05c1.28,0,2.17-.22,2.68-.67.51-.45.76-1.03.76-1.73v-.78c0-.72-.24-1.31-.72-1.77-.48-.46-1.29-.69-2.43-.69h-3.34Z" style="fill:#303030; stroke-width:0px;"></path>
    <path d="m207.53,24.66h-3.6l-1.81-5.12h-6.29l-1.84,5.12h-3.39l6.93-18.65h2.98l7.01,18.65Zm-10.74-7.89h4.37l-1.27-3.8c-.22-.62-.4-1.14-.53-1.57-.13-.42-.26-.86-.4-1.31-.07.26-.13.49-.19.7-.06.21-.13.42-.19.63-.07.22-.14.44-.22.69-.08.24-.18.53-.3.85l-1.27,3.8Z" style="fill:#303030; stroke-width:0px;"></path>
    <path d="m216.51,6c2.78,0,4.82.69,6.13,2.06,1.31,1.37,1.97,3.35,1.97,5.94v2.66c0,1.29-.15,2.44-.44,3.43-.29.99-.76,1.82-1.41,2.5-.65.67-1.48,1.19-2.5,1.54-1.02.35-2.25.53-3.7.53h-6.55V6h6.49Zm-3.21,15.86h2.77c.83,0,1.57-.09,2.21-.29.65-.19,1.19-.49,1.63-.91.44-.41.78-.96,1.01-1.64.23-.68.35-1.51.35-2.5v-2.41c0-1.97-.44-3.35-1.31-4.14-.87-.79-2.17-1.19-3.89-1.19h-2.77v13.07Z" style="fill:#303030; stroke-width:0px;"></path>
    <path d="m228.05,6h3.31v18.65h-3.31V6Z" style="fill:#303030; stroke-width:0px;"></path>
    <path d="m243.08,5.72c1.1,0,2.2.16,3.29.47,1.09.31,2.11.85,3.08,1.63l-1.79,2.54c-.69-.6-1.43-1.03-2.22-1.27-.79-.24-1.58-.36-2.35-.36-.72,0-1.39.08-1.99.25-.6.16-1.12.46-1.57.88-.44.42-.79,1.01-1.04,1.76-.25.75-.38,1.72-.38,2.91v1.91c0,1.02.13,1.88.39,2.57.26.7.62,1.27,1.07,1.71.46.44,1,.75,1.63.94.63.19,1.32.28,2.08.28.6,0,1.15-.04,1.63-.13.48-.09.96-.22,1.42-.41v-4.48h-3.91v-2.77h7.19v9.08c-.41.28-.88.52-1.4.74-.52.21-1.06.39-1.63.53-.57.14-1.15.25-1.75.32-.59.08-1.17.12-1.72.12-1.19,0-2.29-.15-3.3-.44-1.01-.29-1.89-.76-2.64-1.4-.75-.64-1.34-1.45-1.76-2.43-.42-.98-.63-2.17-.63-3.57v-3.34c0-1.4.21-2.6.62-3.61.41-1.01.99-1.85,1.72-2.51.73-.66,1.61-1.15,2.63-1.46,1.02-.31,2.12-.47,3.31-.47Z" style="fill:#303030; stroke-width:0px;"></path>
    <path d="m257.18,11.72c-.14-.33-.28-.71-.41-1.15-.14-.44-.32-1-.54-1.67v15.76h-3.08V6h4.71l4.58,11.59,4.4-11.59h4.76v18.65h-3.13v-15.76c-.19.78-.35,1.36-.49,1.75-.14.39-.27.75-.39,1.07l-3.91,9.83h-2.64l-3.86-9.83Z" style="fill:#303030; stroke-width:0px;"></path>
    <path d="m77.6,33.51v18.65h-1.14v-18.65h1.14Z" style="fill:#303030; stroke-width:0px;"></path>
    <path d="m83.63,33.51l9.29,15.81c.1.17.24.42.4.75.16.33.3.6.4.83v-17.39h1.11v18.65h-1.55l-9.29-15.81c-.14-.24-.28-.51-.43-.8-.15-.29-.27-.55-.38-.78v17.39h-1.11v-18.65h1.55Z" style="fill:#303030; stroke-width:0px;"></path>
    <path d="m98.76,33.51l6.26,17.28,6.21-17.28h1.22l-6.8,18.65h-1.32l-6.83-18.65h1.27Z" style="fill:#303030; stroke-width:0px;"></path>
    <path d="m126.01,33.51v1.06h-9.75v7.5h9.21v1.04h-9.21v8h9.94v1.06h-11.07v-18.65h10.89Z" style="fill:#303030; stroke-width:0px;"></path>
    <path d="m135.48,51.36c.79,0,1.5-.1,2.13-.3.63-.2,1.17-.47,1.6-.8.44-.34.77-.72,1-1.17.22-.44.34-.9.34-1.38v-.67c0-.52-.06-.97-.18-1.36-.12-.39-.38-.73-.78-1.04-.4-.3-.97-.58-1.71-.84-.74-.26-1.73-.52-2.98-.78-1.19-.26-2.13-.56-2.82-.91-.69-.34-1.21-.72-1.55-1.12-.34-.41-.56-.83-.66-1.28-.1-.45-.14-.9-.14-1.34v-.65c0-.78.17-1.45.52-2.02.34-.57.79-1.04,1.35-1.4.55-.36,1.17-.63,1.86-.81.69-.18,1.39-.27,2.1-.27,1.24,0,2.32.14,3.22.43.91.28,1.65.64,2.24,1.07l-.54.93c-.6-.4-1.31-.72-2.12-.97-.81-.25-1.74-.38-2.79-.38-.55,0-1.1.07-1.66.19-.55.13-1.05.34-1.5.62-.45.28-.82.64-1.1,1.07-.29.43-.43.95-.43,1.55v.59c0,.41.05.79.14,1.14.09.35.3.66.62.96.32.29.78.57,1.37.83.6.26,1.39.5,2.39.72,1.26.29,2.29.58,3.1.85.81.28,1.45.6,1.93.97.47.37.8.81.98,1.32.18.51.27,1.13.27,1.88v.72c0,.6-.14,1.19-.41,1.76-.28.57-.68,1.07-1.2,1.51-.53.44-1.17.79-1.94,1.05s-1.64.39-2.63.39c-1.14,0-2.24-.16-3.3-.49-1.06-.33-2.03-.82-2.91-1.47l.57-.96c.57.4,1.11.72,1.63.96.52.24,1.01.43,1.47.56.47.13.91.22,1.33.26.42.04.82.07,1.18.07Z" style="fill:#303030; stroke-width:0px;"></path>
    <path d="m149.65,52.16v-17.59h-6.21v-1.06h13.56v1.06h-6.21v17.59h-1.14Z" style="fill:#303030; stroke-width:0px;"></path>
    <path d="m162.33,38.37c-.55-1.07-1.03-2.09-1.45-3.05v16.84h-1.11v-18.65h1.29l7.04,14.26,6.88-14.26h1.34v18.65h-1.11v-16.64c-.24.57-.48,1.1-.72,1.6-.24.5-.51,1.03-.8,1.58l-5.12,10.35h-.98l-5.25-10.69Z" style="fill:#303030; stroke-width:0px;"></path>
    <path d="m191.7,33.51v1.06h-9.75v7.5h9.21v1.04h-9.21v8h9.94v1.06h-11.07v-18.65h10.89Z" style="fill:#303030; stroke-width:0px;"></path>
    <path d="m197.41,33.51l9.29,15.81c.1.17.24.42.4.75.16.33.3.6.4.83v-17.39h1.11v18.65h-1.55l-9.29-15.81c-.14-.24-.28-.51-.43-.8-.15-.29-.27-.55-.38-.78v17.39h-1.11v-18.65h1.55Z" style="fill:#303030; stroke-width:0px;"></path>
    <path d="m217.59,52.16v-17.59h-6.21v-1.06h13.56v1.06h-6.21v17.59h-1.14Z" style="fill:#303030; stroke-width:0px;"></path>
    <path d="m38.66,27.29c-2.29-9.99-11.7-14.48-17.66-14.48h-8.23c-1.93,0-3.49,1.57-3.49,3.49v27.17c0,1.93,1.57,3.49,3.49,3.49s3.49-1.57,3.49-3.49v-23.67h4.74c3.54,0,9.43,2.88,10.85,9.06.21.91.76,1.68,1.55,2.18.79.5,1.73.65,2.63.45,1.88-.43,3.05-2.31,2.62-4.18Z" style="fill:#fff; stroke-width:0px;"></path>
    <path d="m46.67,22.71c-1.93,0-3.49,1.57-3.49,3.49v13.78h-4.74c-3.54,0-9.43-2.88-10.85-9.05-.21-.91-.76-1.68-1.55-2.18-.79-.5-1.73-.65-2.63-.45-1.88.43-3.05,2.31-2.62,4.18,2.29,9.99,11.7,14.48,17.66,14.48h8.23c1.93,0,3.49-1.57,3.49-3.49v-17.27c0-1.93-1.57-3.49-3.49-3.49Z" style="fill:#fff; stroke-width:0px;"></path>
    <circle cx="46.67" cy="16.31" r="3.49" style="fill:#fff; stroke-width:0px;"></circle>
  </g>
</svg>
